<?xml version="1.0" encoding="UTF-8"?>
<svg xmlns="http://www.w3.org/2000/svg" xmlns:xlink="http://www.w3.org/1999/xlink" width="98px" height="98px" viewBox="0 0 98 98" version="1.1">
<defs>
<filter id="alpha" filterUnits="objectBoundingBox" x="0%" y="0%" width="100%" height="100%">
  <feColorMatrix type="matrix" in="SourceGraphic" values="0 0 0 0 1 0 0 0 0 1 0 0 0 0 1 0 0 0 1 0"/>
</filter>
<mask id="mask0">
  <g filter="url(#alpha)">
<rect x="0" y="0" width="98" height="98" style="fill:rgb(0%,0%,0%);fill-opacity:0.501961;stroke:none;"/>
  </g>
</mask>
<clipPath id="clip1">
  <rect x="0" y="0" width="98" height="98"/>
</clipPath>
<g id="surface5" clip-path="url(#clip1)">
<path style=" stroke:none;fill-rule:evenodd;fill:rgb(100%,100%,100%);fill-opacity:1;" d="M 62.8125 0.0078125 L 62.8125 22.304688 C 62.8125 24.839844 64.503906 31.171875 72.160156 31.171875 L 91.757812 31.171875 Z M 62.8125 0.0078125 "/>
</g>
</defs>
<g id="surface1">
<path style=" stroke:none;fill-rule:evenodd;fill:rgb(100%,76.470588%,36.862745%);fill-opacity:1;" d="M 13.894531 0.0078125 C 9.605469 0.0078125 6.128906 3.488281 6.128906 7.777344 L 6.128906 90.222656 C 6.128906 94.515625 9.605469 97.992188 13.894531 97.992188 L 83.988281 97.992188 C 88.277344 97.992188 91.757812 94.515625 91.757812 90.222656 L 91.757812 31.109375 L 62.8125 0.0078125 Z M 13.894531 0.0078125 "/>
<path style=" stroke:none;fill-rule:evenodd;fill:rgb(100%,70.588235%,27.45098%);fill-opacity:1;" d="M 91.757812 31.171875 L 91.757812 32.703125 L 72.15625 32.703125 C 72.15625 32.703125 62.492188 30.773438 62.773438 22.429688 C 62.773438 22.429688 63.160156 31.171875 71.964844 31.171875 Z M 91.757812 31.171875 "/>
<use xlink:href="#surface5" mask="url(#mask0)"/>
<path style=" stroke:none;fill-rule:nonzero;fill:rgb(100%,100%,100%);fill-opacity:1;" d="M 36.957031 82.570312 C 36.488281 82.570312 36.046875 82.292969 35.855469 81.824219 L 34.476562 78.324219 L 25.324219 78.324219 L 23.945312 81.824219 C 23.753906 82.292969 23.3125 82.570312 22.84375 82.570312 C 22.125 82.570312 21.601562 81.992188 21.601562 81.355469 C 21.601562 81.21875 21.628906 81.054688 21.683594 80.914062 L 28.023438 65.089844 C 28.328125 64.347656 29.046875 63.847656 29.902344 63.847656 C 30.699219 63.847656 31.417969 64.34375 31.71875 65.089844 L 38.117188 80.914062 C 38.171875 81.054688 38.199219 81.21875 38.199219 81.355469 C 38.199219 81.90625 37.703125 82.570312 36.957031 82.570312 Z M 29.898438 66.386719 L 25.984375 76.28125 L 33.785156 76.28125 Z M 42.933594 82.570312 C 42.300781 82.570312 41.804688 82.074219 41.804688 81.441406 L 41.804688 64.949219 C 41.804688 64.34375 42.300781 63.847656 42.988281 63.847656 C 43.597656 63.847656 44.09375 64.34375 44.09375 64.949219 L 44.09375 81.4375 C 44.09375 82.074219 43.597656 82.570312 42.933594 82.570312 Z M 42.933594 82.570312 "/>
</g>
</svg>
