<?xml version="1.0" encoding="UTF-8"?>
<svg xmlns="http://www.w3.org/2000/svg" xmlns:xlink="http://www.w3.org/1999/xlink" width="56px" height="56px" viewBox="0 0 56 56" version="1.1">
<g id="surface1">
<path style=" stroke:none;fill-rule:nonzero;fill:rgb(99.607843%,99.607843%,99.607843%);fill-opacity:1;" d="M 28 5.25 C 15.4375 5.25 5.25 15.4375 5.25 28 C 5.25 38.742188 12.699219 47.738281 22.710938 50.125 C 22.191406 50 21.679688 49.863281 21.175781 49.707031 L 21.175781 44.492188 C 21.175781 44.492188 20.320312 44.777344 19.183594 44.777344 C 16.003906 44.777344 14.679688 41.9375 14.351562 40.511719 C 14.148438 39.644531 13.625 38.820312 13.066406 38.316406 C 12.394531 37.71875 12.078125 37.71875 12.074219 37.511719 C 12.066406 37.082031 12.652344 37.101562 12.929688 37.101562 C 14.351562 37.101562 15.429688 38.613281 15.929688 39.394531 C 17.167969 41.328125 18.5 41.648438 19.183594 41.648438 C 20.039062 41.648438 20.773438 41.523438 21.28125 41.277344 C 21.515625 39.625 22.25 38.152344 23.449219 37.101562 C 18.113281 36.035156 14.351562 32.972656 14.351562 28 C 14.351562 25.4375 15.378906 23.082031 17.089844 21.183594 C 16.917969 20.6875 16.625 19.683594 16.625 18.046875 C 16.625 16.964844 16.699219 15.640625 17.195312 14.351562 C 17.195312 14.351562 20.4375 14.371094 23.5 17.269531 C 24.910156 16.859375 26.421875 16.625 28 16.625 C 29.578125 16.625 31.089844 16.859375 32.5 17.269531 C 35.5625 14.371094 38.804688 14.351562 38.804688 14.351562 C 39.300781 15.640625 39.375 16.964844 39.375 18.046875 C 39.375 19.808594 39.140625 20.839844 38.996094 21.28125 C 40.65625 23.164062 41.648438 25.484375 41.648438 28 C 41.648438 32.972656 37.886719 36.035156 32.550781 37.101562 C 33.972656 38.351562 34.824219 40.175781 34.824219 42.21875 L 34.824219 49.707031 C 34.320312 49.863281 33.808594 50 33.289062 50.125 C 43.300781 47.738281 50.75 38.742188 50.75 28 C 50.75 15.4375 40.5625 5.25 28 5.25 Z M 29.585938 50.6875 C 29.0625 50.726562 28.535156 50.75 28 50.75 C 28.535156 50.75 29.0625 50.726562 29.585938 50.6875 Z M 33.0625 50.179688 C 32.042969 50.410156 31 50.574219 29.933594 50.664062 C 31 50.574219 32.042969 50.410156 33.0625 50.179688 Z M 28 50.75 C 27.464844 50.75 26.9375 50.726562 26.414062 50.6875 C 26.9375 50.726562 27.464844 50.75 28 50.75 Z M 26.066406 50.664062 C 25 50.574219 23.953125 50.410156 22.9375 50.179688 C 23.957031 50.410156 25 50.574219 26.066406 50.664062 Z M 26.066406 50.664062 "/>
</g>
</svg>
