<?xml version="1.0" encoding="UTF-8"?>
<svg xmlns="http://www.w3.org/2000/svg" xmlns:xlink="http://www.w3.org/1999/xlink" width="518px" height="518px" viewBox="0 0 518 518" version="1.1">
<g id="surface1">
<path style=" stroke:none;fill-rule:evenodd;fill:rgb(55.686275%,44.313725%,30.588235%);fill-opacity:1;" d="M 482.300781 246.316406 C 481.835938 246.410156 481.367188 247.4375 481.367188 247.996094 C 481.273438 251.730469 481.179688 261.628906 481.179688 268.347656 C 481.179688 268.535156 481.460938 268.910156 481.738281 268.910156 C 483.140625 269.003906 486.5 269.097656 489.394531 269.097656 C 493.410156 269.097656 495.746094 268.535156 497.050781 267.976562 C 500.414062 266.296875 502 262.65625 502 258.640625 C 502 249.582031 495.652344 246.128906 486.222656 246.128906 C 485.566406 246.035156 483.703125 246.035156 482.300781 246.316406 Z M 506.386719 288.050781 C 506.386719 278.804688 499.574219 273.671875 487.25 273.671875 C 486.6875 273.671875 482.765625 273.578125 481.832031 273.765625 C 481.554688 273.859375 481.179688 274.046875 481.179688 274.324219 C 481.179688 280.953125 481.085938 291.503906 481.367188 295.613281 C 481.554688 297.386719 482.859375 299.90625 484.449219 300.652344 C 486.128906 301.585938 489.957031 301.773438 492.570312 301.773438 C 499.945312 301.773438 506.386719 297.664062 506.386719 288.050781 Z M 463.253906 241.179688 C 464.1875 241.179688 466.988281 241.460938 474.175781 241.460938 C 480.992188 241.460938 486.40625 241.273438 493.035156 241.273438 C 501.160156 241.273438 512.363281 244.167969 512.363281 256.304688 C 512.363281 262.28125 508.160156 267.042969 502.652344 269.378906 C 502.375 269.46875 502.375 269.65625 502.652344 269.75 C 510.496094 271.710938 517.40625 276.566406 517.40625 285.714844 C 517.40625 294.679688 511.804688 300.375 503.679688 303.921875 C 498.730469 306.066406 492.570312 306.816406 486.316406 306.816406 C 481.554688 306.816406 468.761719 306.253906 461.667969 306.441406 C 460.921875 306.160156 462.320312 302.800781 462.972656 302.242188 C 464.65625 302.148438 465.960938 302.054688 467.734375 301.492188 C 470.257812 300.839844 470.535156 300.09375 470.910156 296.265625 C 471.097656 292.996094 471.097656 281.417969 471.097656 273.203125 C 471.097656 261.90625 471.191406 254.253906 471.097656 250.519531 C 471.003906 247.625 469.976562 246.6875 467.921875 246.128906 C 466.335938 245.851562 463.722656 245.476562 461.574219 245.195312 C 461.105469 244.730469 462.695312 241.554688 463.253906 241.179688 Z M 409.382812 299.253906 C 411.625 301.027344 416.011719 301.773438 419.933594 301.773438 C 424.976562 301.773438 430.015625 300.839844 434.871094 296.449219 C 439.820312 291.972656 443.273438 285.0625 443.273438 274.046875 C 443.273438 263.492188 439.261719 254.90625 431.042969 249.863281 C 426.375 246.96875 420.402344 245.757812 413.492188 245.757812 C 411.4375 245.757812 409.476562 245.851562 408.265625 246.410156 C 407.984375 246.597656 407.332031 247.4375 407.332031 247.902344 C 407.144531 249.769531 407.144531 264.148438 407.144531 272.550781 C 407.144531 281.234375 407.144531 293.371094 407.332031 294.769531 C 407.332031 296.171875 407.984375 298.320312 409.382812 299.253906 Z M 388.1875 241.179688 C 389.964844 241.179688 396.777344 241.460938 400.046875 241.460938 C 405.929688 241.460938 410.128906 241.179688 421.238281 241.179688 C 430.578125 241.179688 438.417969 243.703125 444.019531 248.464844 C 450.835938 254.34375 454.386719 262.46875 454.386719 272.363281 C 454.386719 286.460938 447.941406 294.585938 441.5 299.253906 C 435.058594 304.015625 426.65625 306.816406 414.707031 306.816406 C 408.355469 306.816406 397.433594 306.628906 388.375 306.535156 L 388.285156 306.535156 C 387.816406 305.695312 389.03125 302.425781 389.777344 302.332031 C 392.203125 302.054688 392.859375 301.960938 394.074219 301.496094 C 396.03125 300.746094 396.40625 299.71875 396.6875 296.265625 C 396.964844 289.824219 396.871094 282.074219 396.871094 273.296875 C 396.871094 267.042969 396.964844 254.8125 396.777344 250.890625 C 396.5 247.625 395.097656 246.78125 392.296875 246.222656 C 390.898438 245.941406 389.03125 245.570312 386.417969 245.289062 C 386.042969 244.632812 387.722656 241.742188 388.1875 241.179688 Z M 388.1875 241.179688 "/>
<path style=" stroke:none;fill-rule:evenodd;fill:rgb(26.666667%,17.647059%,13.333333%);fill-opacity:1;" d="M 275.222656 302.894531 C 272.886719 302.613281 271.207031 302.242188 269.152344 301.308594 C 268.871094 301.121094 268.40625 300.1875 268.40625 299.8125 C 268.21875 296.542969 268.21875 287.207031 268.21875 280.953125 C 268.21875 275.910156 267.378906 271.523438 265.230469 268.445312 C 262.710938 264.894531 259.070312 262.839844 254.402344 262.839844 C 250.292969 262.839844 244.785156 265.640625 240.210938 269.5625 C 240.117188 269.65625 239.371094 270.3125 239.460938 269.28125 C 239.460938 268.257812 239.648438 266.203125 239.742188 264.800781 C 239.835938 263.492188 239.089844 262.839844 239.089844 262.839844 C 236.101562 264.335938 227.699219 266.296875 224.617188 266.574219 C 222.378906 267.042969 221.816406 269.191406 224.152344 269.9375 L 224.246094 269.9375 C 226.765625 270.683594 228.445312 271.523438 229.753906 272.363281 C 230.6875 273.113281 230.59375 274.136719 230.59375 274.980469 C 230.6875 281.980469 230.6875 292.71875 230.40625 298.601562 C 230.3125 300.933594 229.660156 301.773438 227.980469 302.148438 L 228.164062 302.054688 C 226.859375 302.332031 225.832031 302.613281 224.246094 302.800781 C 223.683594 303.359375 223.683594 306.347656 224.246094 307.003906 C 225.269531 307.003906 230.6875 306.722656 235.167969 306.722656 C 241.332031 306.722656 244.503906 307.003906 246.089844 307.003906 C 246.746094 306.253906 246.933594 303.453125 246.558594 302.800781 C 244.785156 302.707031 243.476562 302.519531 242.265625 302.148438 C 240.582031 301.773438 240.117188 300.933594 240.023438 298.972656 C 239.835938 294.023438 239.835938 283.566406 239.835938 276.472656 C 239.835938 274.511719 240.398438 273.578125 240.957031 273.015625 C 243.105469 271.152344 246.558594 269.84375 249.640625 269.84375 C 252.628906 269.84375 254.585938 270.777344 256.082031 271.992188 C 258.136719 273.671875 258.789062 276.097656 259.070312 277.871094 C 259.535156 281.886719 259.347656 289.824219 259.347656 296.730469 C 259.347656 300.464844 259.070312 301.398438 257.667969 301.867188 C 257.015625 302.148438 255.335938 302.519531 253.375 302.707031 C 252.71875 303.359375 252.90625 306.253906 253.375 306.910156 C 256.082031 306.910156 259.257812 306.628906 263.925781 306.628906 C 269.710938 306.628906 273.449219 306.910156 274.941406 306.910156 C 275.40625 306.347656 275.59375 303.640625 275.222656 302.894531 Z M 301.082031 267.230469 C 296.136719 267.230469 293.054688 271.058594 293.054688 277.03125 C 293.054688 283.101562 295.761719 290.101562 303.417969 290.101562 C 304.722656 290.101562 307.152344 289.542969 308.269531 288.234375 C 310.046875 286.554688 311.257812 283.195312 311.257812 279.644531 C 311.257812 271.898438 307.429688 267.230469 301.082031 267.230469 Z M 300.429688 308.496094 C 298.5625 308.496094 297.253906 309.054688 296.414062 309.523438 C 292.492188 312.042969 290.71875 314.46875 290.71875 317.367188 C 290.71875 320.074219 291.746094 322.21875 293.988281 324.085938 C 296.695312 326.421875 300.429688 327.542969 305.191406 327.542969 C 314.714844 327.542969 318.914062 322.40625 318.914062 317.367188 C 318.914062 313.816406 317.140625 311.484375 313.5 310.175781 C 310.886719 309.054688 306.125 308.496094 300.429688 308.496094 Z M 301.082031 332.769531 C 295.386719 332.769531 291.277344 331.554688 287.730469 328.847656 C 284.277344 326.234375 282.785156 322.3125 282.785156 319.605469 C 282.785156 318.859375 282.96875 316.804688 284.652344 314.9375 C 285.675781 313.816406 287.917969 311.671875 293.242188 308.027344 C 293.425781 307.9375 293.519531 307.84375 293.519531 307.65625 C 293.519531 307.46875 293.332031 307.28125 293.148438 307.1875 C 288.757812 305.507812 287.453125 302.800781 287.078125 301.308594 L 287.078125 301.121094 C 286.984375 300.558594 286.796875 300 287.640625 299.4375 C 288.292969 298.972656 289.226562 298.414062 290.253906 297.761719 C 291.839844 296.824219 293.519531 295.796875 294.546875 294.957031 C 294.734375 294.769531 294.734375 294.585938 294.734375 294.398438 C 294.734375 294.210938 294.546875 294.023438 294.359375 293.929688 C 287.824219 291.785156 284.558594 286.929688 284.558594 279.644531 C 284.558594 274.886719 286.703125 270.589844 290.53125 267.882812 C 293.148438 265.828125 299.683594 263.308594 303.976562 263.308594 L 304.257812 263.308594 C 308.644531 263.402344 311.070312 264.335938 314.527344 265.550781 C 316.394531 266.203125 318.167969 266.480469 320.597656 266.480469 C 324.238281 266.480469 325.824219 265.363281 327.128906 264.054688 C 327.222656 264.242188 327.410156 264.710938 327.503906 265.921875 C 327.597656 267.136719 327.222656 268.910156 326.289062 270.21875 C 325.542969 271.242188 323.863281 271.992188 322.183594 271.992188 L 321.714844 271.992188 C 320.035156 271.804688 319.289062 271.617188 319.289062 271.617188 L 318.914062 271.804688 C 318.820312 271.992188 318.914062 272.175781 319.007812 272.457031 L 319.101562 272.644531 C 319.289062 273.484375 319.660156 276.003906 319.660156 276.660156 C 319.660156 284.316406 316.582031 287.675781 313.3125 290.195312 C 310.136719 292.53125 306.5 294.023438 302.390625 294.398438 C 302.296875 294.398438 301.925781 294.398438 301.082031 294.492188 C 300.617188 294.492188 299.960938 294.585938 299.867188 294.585938 L 299.773438 294.585938 C 299.027344 294.769531 297.160156 295.707031 297.160156 297.292969 C 297.160156 298.691406 298 300.375 302.015625 300.652344 C 302.855469 300.746094 303.695312 300.746094 304.628906 300.839844 C 309.953125 301.214844 316.582031 301.679688 319.660156 302.707031 C 323.957031 304.292969 326.664062 308.121094 326.664062 312.695312 C 326.664062 319.605469 321.714844 326.046875 313.5 330.0625 C 309.484375 331.835938 305.46875 332.769531 301.082031 332.769531 Z M 354.300781 267.695312 C 352.339844 267.695312 350.566406 268.164062 349.257812 269.097656 C 345.617188 271.335938 343.75 275.820312 343.75 282.351562 C 343.75 294.585938 349.910156 303.175781 358.6875 303.175781 C 361.300781 303.175781 363.355469 302.425781 365.128906 300.933594 C 367.835938 298.691406 369.238281 294.210938 369.238281 287.957031 C 369.238281 275.820312 363.167969 267.695312 354.300781 267.695312 Z M 355.980469 307.65625 C 340.109375 307.65625 334.414062 295.984375 334.414062 285.0625 C 334.414062 277.40625 337.496094 271.523438 343.65625 267.324219 C 348.042969 264.613281 353.273438 263.121094 357.941406 263.121094 C 370.078125 263.121094 378.574219 271.804688 378.574219 284.316406 C 378.574219 292.8125 375.214844 299.53125 368.769531 303.640625 C 365.691406 305.695312 360.367188 307.65625 355.980469 307.65625 Z M 189.605469 267.695312 C 187.648438 267.695312 185.871094 268.164062 184.566406 269.097656 C 180.925781 271.335938 179.058594 275.820312 179.058594 282.351562 C 179.058594 294.585938 185.21875 303.175781 193.996094 303.175781 C 196.609375 303.175781 198.664062 302.425781 200.4375 300.933594 C 203.144531 298.691406 204.546875 294.210938 204.546875 287.957031 C 204.546875 275.820312 198.570312 267.695312 189.605469 267.695312 Z M 191.289062 307.65625 C 175.414062 307.65625 169.722656 295.984375 169.722656 285.0625 C 169.722656 277.40625 172.800781 271.523438 178.964844 267.324219 C 183.351562 264.613281 188.582031 263.121094 193.25 263.121094 C 205.386719 263.121094 213.882812 271.804688 213.882812 284.316406 C 213.882812 292.8125 210.519531 299.53125 204.078125 303.640625 C 201.089844 305.695312 195.769531 307.65625 191.289062 307.65625 Z M 84.574219 306.722656 C 84.386719 306.441406 84.199219 305.601562 84.292969 304.574219 C 84.292969 303.828125 84.480469 303.359375 84.574219 303.175781 C 86.535156 302.894531 87.5625 302.613281 88.679688 302.332031 C 90.550781 301.867188 91.296875 300.839844 91.386719 298.507812 C 91.667969 292.90625 91.667969 282.261719 91.574219 274.886719 L 91.574219 274.699219 C 91.574219 273.859375 91.574219 272.832031 90.550781 272.082031 C 89.054688 271.152344 87.28125 270.3125 84.945312 269.65625 C 84.105469 269.378906 83.546875 268.910156 83.640625 268.351562 C 83.640625 267.789062 84.199219 267.136719 85.414062 266.949219 C 88.496094 266.667969 96.523438 264.710938 99.699219 263.308594 C 99.886719 263.492188 100.164062 264.054688 100.164062 264.800781 L 100.070312 265.828125 C 99.976562 266.855469 99.886719 268.070312 99.886719 269.28125 C 99.886719 269.65625 100.257812 269.9375 100.632812 269.9375 C 100.820312 269.9375 101.007812 269.84375 101.191406 269.75 C 107.167969 265.082031 112.582031 263.402344 115.382812 263.402344 C 119.957031 263.402344 123.507812 265.550781 126.214844 270.03125 C 126.398438 270.3125 126.585938 270.402344 126.867188 270.402344 C 127.054688 270.402344 127.332031 270.3125 127.425781 270.125 C 132.9375 265.921875 138.445312 263.402344 142.085938 263.402344 C 150.765625 263.402344 155.902344 269.84375 155.902344 280.765625 C 155.902344 283.847656 155.902344 287.863281 155.808594 291.503906 C 155.808594 294.769531 155.714844 297.757812 155.714844 299.90625 C 155.714844 300.371094 156.371094 301.867188 157.394531 302.148438 C 158.703125 302.800781 160.476562 303.082031 162.8125 303.453125 L 162.90625 303.453125 C 163.09375 304.109375 162.71875 306.535156 162.34375 307.003906 C 161.785156 307.003906 160.945312 307.003906 160.011719 306.910156 C 157.648438 306.785156 155.28125 306.722656 152.914062 306.722656 C 147.128906 306.722656 144.140625 306.816406 141.242188 307.003906 C 141.058594 306.253906 140.964844 304.015625 141.242188 303.453125 C 142.925781 303.175781 143.765625 302.894531 144.792969 302.613281 C 146.660156 302.054688 147.128906 301.214844 147.222656 298.785156 C 147.222656 297.011719 147.59375 281.886719 147.03125 278.246094 C 146.472656 274.511719 143.671875 270.125 137.511719 270.125 C 135.175781 270.125 131.535156 271.058594 127.988281 273.765625 C 127.800781 273.953125 127.613281 274.417969 127.613281 274.699219 L 127.613281 274.792969 C 127.988281 276.75 127.988281 278.992188 127.988281 282.449219 L 127.988281 288.515625 C 127.988281 292.71875 127.894531 296.640625 127.988281 299.625 C 127.988281 301.679688 129.203125 302.148438 130.226562 302.519531 C 130.789062 302.613281 131.160156 302.707031 131.628906 302.800781 C 132.46875 302.988281 133.308594 303.175781 134.617188 303.453125 C 134.804688 303.828125 134.804688 305.042969 134.523438 306.066406 C 134.429688 306.628906 134.242188 306.90625 134.148438 307.003906 C 130.976562 306.910156 127.707031 306.816406 122.945312 306.816406 C 121.546875 306.816406 119.117188 306.910156 117.0625 306.910156 C 115.382812 306.910156 113.796875 307.003906 112.863281 307.003906 C 112.769531 306.816406 112.582031 306.164062 112.582031 305.132812 C 112.582031 304.292969 112.769531 303.640625 112.957031 303.453125 C 113.421875 303.359375 113.796875 303.269531 114.261719 303.269531 C 115.382812 303.082031 116.316406 302.894531 117.25 302.707031 C 118.839844 302.242188 119.398438 301.398438 119.492188 299.347656 C 119.769531 294.679688 120.050781 281.328125 119.398438 277.964844 C 118.277344 272.550781 115.199219 269.84375 110.246094 269.84375 C 107.355469 269.84375 103.710938 271.242188 100.726562 273.484375 C 100.257812 273.859375 99.886719 274.789062 99.886719 275.632812 L 99.886719 281.140625 C 99.886719 287.863281 99.886719 296.265625 99.976562 299.90625 C 100.070312 301.027344 100.445312 302.332031 102.59375 302.800781 C 103.058594 302.894531 103.804688 303.082031 104.738281 303.175781 L 106.417969 303.453125 C 106.609375 304.015625 106.515625 306.253906 106.140625 307.003906 C 105.207031 307.003906 104.085938 306.910156 102.777344 306.910156 C 100.820312 306.816406 98.296875 306.722656 95.496094 306.722656 C 92.230469 306.722656 89.894531 306.816406 88.027344 306.910156 C 86.71875 306.722656 85.695312 306.722656 84.574219 306.722656 Z M 84.574219 306.722656 "/>
<path style=" stroke:none;fill-rule:evenodd;fill:rgb(100%,100%,100%);fill-opacity:1;" d="M 35.464844 329.128906 L 31.636719 327.820312 C 31.636719 327.820312 32.105469 308.308594 25.101562 306.910156 C 20.433594 301.492188 25.847656 77.234375 42.652344 306.160156 C 42.652344 306.160156 36.863281 309.054688 35.839844 314.003906 C 34.71875 318.859375 35.464844 329.128906 35.464844 329.128906 Z M 35.464844 329.128906 "/>
<path style=" stroke:none;fill-rule:evenodd;fill:rgb(65.098039%,63.921569%,52.156863%);fill-opacity:1;" d="M 35.464844 329.128906 L 31.636719 327.820312 C 31.636719 327.820312 32.105469 308.308594 25.101562 306.910156 C 20.433594 301.492188 25.847656 77.234375 42.652344 306.160156 C 42.652344 306.160156 36.863281 309.054688 35.839844 314.003906 C 34.71875 318.859375 35.464844 329.128906 35.464844 329.128906 Z M 35.464844 329.128906 "/>
<path style=" stroke:none;fill-rule:evenodd;fill:rgb(100%,100%,100%);fill-opacity:1;" d="M 37.519531 310.269531 C 37.519531 310.269531 71.035156 288.234375 63.191406 242.394531 C 55.632812 209.066406 37.796875 198.140625 35.839844 193.9375 C 33.691406 190.953125 31.636719 185.722656 31.636719 185.722656 L 33.039062 278.433594 C 33.039062 278.527344 30.144531 306.816406 37.519531 310.269531 "/>
<path style=" stroke:none;fill-rule:evenodd;fill:rgb(28.627451%,61.568627%,29.019608%);fill-opacity:1;" d="M 37.519531 310.269531 C 37.519531 310.269531 71.035156 288.234375 63.191406 242.394531 C 55.632812 209.066406 37.796875 198.140625 35.839844 193.9375 C 33.691406 190.953125 31.636719 185.722656 31.636719 185.722656 L 33.039062 278.433594 C 33.039062 278.527344 30.144531 306.816406 37.519531 310.269531 "/>
<path style=" stroke:none;fill-rule:evenodd;fill:rgb(100%,100%,100%);fill-opacity:1;" d="M 29.675781 311.484375 C 29.675781 311.484375 -1.789062 290.007812 0.078125 252.199219 C 1.851562 214.386719 24.074219 195.808594 28.367188 192.445312 C 31.171875 189.457031 31.261719 188.335938 31.449219 185.351562 C 33.410156 189.550781 33.039062 248.183594 33.316406 255.089844 C 34.15625 281.699219 31.824219 306.441406 29.675781 311.484375 Z M 29.675781 311.484375 "/>
<path style=" stroke:none;fill-rule:evenodd;fill:rgb(34.509804%,66.666667%,31.372549%);fill-opacity:1;" d="M 29.675781 311.484375 C 29.675781 311.484375 -1.789062 290.007812 0.078125 252.199219 C 1.851562 214.386719 24.074219 195.808594 28.367188 192.445312 C 31.171875 189.457031 31.261719 188.335938 31.449219 185.351562 C 33.410156 189.550781 33.039062 248.183594 33.316406 255.089844 C 34.15625 281.699219 31.824219 306.441406 29.675781 311.484375 Z M 29.675781 311.484375 "/>
</g>
</svg>
