<?xml version="1.0" encoding="UTF-8"?>
<svg xmlns="http://www.w3.org/2000/svg" xmlns:xlink="http://www.w3.org/1999/xlink" width="98px" height="98px" viewBox="0 0 98 98" version="1.1">
<g id="surface1">
<path style=" stroke:none;fill-rule:nonzero;fill:rgb(32.54902%,75.686275%,87.058824%);fill-opacity:1;" d="M 57.203125 48.925781 C 57.203125 44.535156 53.53125 40.972656 49 40.972656 C 44.46875 40.972656 40.796875 44.535156 40.796875 48.925781 C 40.796875 53.320312 44.46875 56.882812 49 56.882812 C 53.53125 56.882812 57.203125 53.320312 57.203125 48.925781 Z M 57.203125 48.925781 "/>
<path style=" stroke:none;fill-rule:evenodd;fill:rgb(32.54902%,75.686275%,87.058824%);fill-opacity:1;" d="M 75.644531 34.160156 C 77.378906 27.332031 79.554688 14.675781 71.878906 10.382812 C 64.238281 6.109375 54.292969 14.296875 49.042969 19.210938 C 43.808594 14.347656 33.585938 6.195312 25.914062 10.5 C 18.277344 14.785156 20.632812 27.234375 22.402344 34.101562 C 15.277344 36.066406 3.0625 40.292969 3.0625 48.925781 C 3.0625 57.535156 15.265625 62.132812 22.347656 64.09375 C 20.570312 71 18.332031 83.273438 25.980469 87.550781 C 33.679688 91.855469 43.871094 83.894531 49.167969 78.925781 C 54.453125 83.871094 64.300781 91.882812 71.945312 87.589844 C 79.613281 83.289062 77.613281 70.800781 75.84375 63.890625 C 82.710938 61.925781 94.9375 57.429688 94.9375 48.925781 C 94.9375 40.375 82.65625 36.113281 75.644531 34.160156 Z M 74.773438 60.230469 C 73.613281 56.660156 72.042969 52.867188 70.121094 48.945312 C 71.953125 45.117188 73.464844 41.371094 74.59375 37.824219 C 79.734375 39.269531 91.011719 42.574219 91.011719 48.925781 C 91.011719 55.339844 80.191406 58.671875 74.773438 60.230469 Z M 69.976562 84.296875 C 64.277344 87.5 55.804688 79.839844 51.902344 76.199219 C 54.492188 73.453125 57.078125 70.261719 59.605469 66.714844 C 64.046875 66.335938 68.242188 65.710938 72.046875 64.855469 C 73.292969 69.742188 75.707031 81.082031 69.976562 84.296875 Z M 27.941406 84.253906 C 22.238281 81.0625 24.84375 70.113281 26.152344 65.027344 C 29.914062 65.835938 34.082031 66.414062 38.535156 66.765625 C 41.074219 70.234375 43.738281 73.421875 46.421875 76.210938 C 43.105469 79.320312 33.671875 87.457031 27.941406 84.253906 Z M 6.988281 48.925781 C 6.988281 42.488281 18.199219 39.210938 23.457031 37.769531 C 24.605469 41.394531 26.113281 45.183594 27.933594 49.019531 C 26.089844 52.910156 24.558594 56.761719 23.398438 60.429688 C 18.386719 59.039062 6.988281 55.367188 6.988281 48.925781 Z M 27.878906 13.792969 C 33.605469 10.578125 42.492188 18.40625 46.292969 21.929688 C 43.625 24.707031 40.984375 27.871094 38.464844 31.320312 C 34.144531 31.707031 30.007812 32.332031 26.207031 33.164062 C 24.78125 27.625 22.160156 17.003906 27.878906 13.792969 Z M 62.410156 35.453125 C 65.34375 35.8125 68.152344 36.289062 70.789062 36.875 C 69.996094 39.335938 69.011719 41.90625 67.847656 44.546875 C 66.164062 41.445312 64.355469 38.410156 62.410156 35.453125 Z M 49.042969 24.648438 C 50.855469 26.546875 52.667969 28.671875 54.449219 30.976562 C 50.832031 30.808594 47.210938 30.808594 43.589844 30.972656 C 45.375 28.691406 47.207031 26.570312 49.042969 24.648438 Z M 30.183594 44.542969 C 29.042969 41.914062 28.066406 39.328125 27.265625 36.835938 C 29.886719 36.265625 32.683594 35.800781 35.59375 35.449219 C 33.644531 38.394531 31.839844 41.429688 30.183594 44.542969 Z M 35.679688 62.675781 C 32.671875 62.351562 29.832031 61.910156 27.210938 61.355469 C 28.023438 58.816406 29.023438 56.175781 30.191406 53.492188 C 31.867188 56.636719 33.703125 59.699219 35.679688 62.675781 Z M 49.152344 73.472656 C 47.292969 71.527344 45.4375 69.375 43.625 67.058594 C 47.261719 67.199219 50.910156 67.199219 54.546875 67.042969 C 52.757812 69.398438 50.949219 71.554688 49.152344 73.472656 Z M 67.886719 53.355469 C 69.113281 56.070312 70.148438 58.695312 70.972656 61.191406 C 68.308594 61.78125 65.429688 62.253906 62.402344 62.609375 C 64.359375 59.597656 66.195312 56.515625 67.886719 53.355469 Z M 57.414062 63.070312 C 51.847656 63.453125 46.25 63.449219 40.679688 63.101562 C 37.519531 58.621094 34.703125 53.910156 32.273438 49.019531 C 34.691406 44.136719 37.484375 39.433594 40.632812 34.960938 C 46.207031 34.550781 51.8125 34.550781 57.382812 34.964844 C 60.503906 39.4375 63.292969 44.125 65.769531 48.964844 C 63.324219 53.84375 60.511719 58.554688 57.414062 63.070312 Z M 69.917969 13.679688 C 75.644531 16.882812 73.097656 28.257812 71.84375 33.207031 C 68.03125 32.351562 63.894531 31.71875 59.558594 31.324219 C 57.035156 27.839844 54.421875 24.667969 51.792969 21.925781 C 55.644531 18.328125 64.246094 10.507812 69.917969 13.679688 Z M 69.917969 13.679688 "/>
</g>
</svg>
