<?xml version="1.0" encoding="UTF-8"?>
<svg xmlns="http://www.w3.org/2000/svg" xmlns:xlink="http://www.w3.org/1999/xlink" width="98px" height="98px" viewBox="0 0 98 98" version="1.1">
<g id="surface1">
<path style=" stroke:none;fill-rule:nonzero;fill:rgb(80.392157%,40.392157%,60%);fill-opacity:1;" d="M 84.328125 54.554688 C 80.917969 54.574219 77.953125 55.394531 75.472656 56.609375 C 74.5625 54.804688 73.652344 53.199219 73.492188 52.019531 C 73.3125 50.648438 73.097656 49.808594 73.3125 48.164062 C 73.527344 46.523438 74.492188 44.183594 74.472656 44.007812 C 74.453125 43.828125 74.257812 42.988281 72.296875 42.972656 C 70.332031 42.953125 68.636719 43.347656 68.4375 43.863281 C 68.242188 44.382812 67.867188 45.558594 67.617188 46.773438 C 67.277344 48.558594 63.691406 54.929688 61.636719 58.269531 C 60.976562 56.964844 60.40625 55.824219 60.28125 54.914062 C 60.101562 53.539062 59.890625 52.699219 60.101562 51.058594 C 60.316406 49.414062 61.28125 47.078125 61.261719 46.898438 C 61.246094 46.71875 61.050781 45.878906 59.085938 45.863281 C 57.121094 45.84375 55.425781 46.238281 55.230469 46.753906 C 55.035156 47.273438 54.820312 48.488281 54.410156 49.664062 C 54 50.84375 49.230469 61.480469 47.984375 64.230469 C 47.339844 65.640625 46.785156 66.765625 46.394531 67.535156 C 46.394531 67.535156 46.375 67.585938 46.324219 67.675781 C 45.984375 68.335938 45.785156 68.695312 45.785156 68.695312 C 45.785156 68.695312 45.785156 68.695312 45.785156 68.710938 C 45.519531 69.195312 45.234375 69.640625 45.089844 69.640625 C 44.984375 69.640625 44.789062 68.355469 45.125 66.605469 C 45.839844 62.910156 47.535156 57.164062 47.519531 56.964844 C 47.519531 56.859375 47.839844 55.859375 46.410156 55.339844 C 45.019531 54.824219 44.519531 55.679688 44.394531 55.679688 C 44.269531 55.679688 44.179688 55.984375 44.179688 55.984375 C 44.179688 55.984375 45.734375 49.523438 41.21875 49.523438 C 38.398438 49.523438 34.503906 52.609375 32.578125 55.394531 C 31.363281 56.054688 28.773438 57.464844 26.007812 58.984375 C 24.957031 59.570312 23.867188 60.160156 22.847656 60.714844 C 22.777344 60.644531 22.707031 60.554688 22.632812 60.484375 C 17.171875 54.644531 7.070312 50.523438 7.496094 42.683594 C 7.65625 39.828125 8.640625 32.332031 26.902344 23.226562 C 41.929688 15.820312 53.890625 17.871094 55.960938 22.425781 C 58.925781 28.921875 49.554688 40.988281 34.023438 42.738281 C 28.097656 43.398438 24.992188 41.113281 24.207031 40.257812 C 23.382812 39.363281 23.257812 39.3125 22.957031 39.488281 C 22.457031 39.757812 22.777344 40.5625 22.957031 41.023438 C 23.421875 42.238281 25.328125 44.382812 28.5625 45.433594 C 31.417969 46.363281 38.359375 46.878906 46.769531 43.632812 C 56.175781 39.988281 63.53125 29.867188 61.371094 21.390625 C 59.210938 12.785156 44.929688 9.949219 31.417969 14.75 C 23.382812 17.605469 14.671875 22.105469 8.40625 27.957031 C 0.964844 34.921875 -0.214844 40.972656 0.269531 43.507812 C 2 52.503906 14.40625 58.359375 19.367188 62.695312 C 19.117188 62.839844 18.886719 62.964844 18.691406 63.070312 C 16.207031 64.300781 6.746094 69.246094 4.390625 74.476562 C 1.714844 80.402344 4.820312 84.652344 6.871094 85.222656 C 13.246094 86.992188 19.796875 83.8125 23.3125 78.566406 C 26.828125 73.316406 26.402344 66.5 24.777344 63.375 C 24.757812 63.339844 24.742188 63.304688 24.707031 63.265625 C 25.347656 62.890625 26.007812 62.5 26.652344 62.125 C 27.917969 61.375 29.167969 60.679688 30.238281 60.109375 C 29.632812 61.769531 29.1875 63.75 28.972656 66.605469 C 28.703125 69.960938 30.078125 74.316406 31.882812 76.03125 C 32.683594 76.78125 33.628906 76.796875 34.238281 76.796875 C 36.34375 76.796875 37.289062 75.046875 38.34375 72.976562 C 39.628906 70.441406 40.789062 67.496094 40.789062 67.496094 C 40.789062 67.496094 39.34375 75.460938 43.269531 75.460938 C 44.699219 75.460938 46.144531 73.601562 46.785156 72.65625 L 46.785156 72.675781 C 46.785156 72.675781 46.820312 72.621094 46.894531 72.496094 C 47.035156 72.265625 47.125 72.121094 47.125 72.121094 L 47.125 72.085938 C 47.695312 71.085938 48.980469 68.820312 50.890625 65.050781 C 53.355469 60.195312 55.730469 54.128906 55.730469 54.128906 C 55.730469 54.128906 55.945312 55.609375 56.675781 58.074219 C 57.105469 59.519531 57.996094 61.105469 58.710938 62.640625 C 58.140625 63.445312 57.78125 63.890625 57.78125 63.890625 C 57.78125 63.890625 57.78125 63.890625 57.800781 63.910156 C 57.335938 64.515625 56.835938 65.175781 56.28125 65.820312 C 54.335938 68.140625 52.015625 70.800781 51.695312 71.566406 C 51.320312 72.476562 51.410156 73.136719 52.125 73.675781 C 52.640625 74.066406 53.570312 74.121094 54.515625 74.066406 C 56.265625 73.941406 57.496094 73.511719 58.105469 73.246094 C 59.050781 72.90625 60.15625 72.390625 61.191406 71.621094 C 63.101562 70.210938 64.261719 68.195312 64.15625 65.535156 C 64.101562 64.070312 63.621094 62.605469 63.03125 61.230469 C 63.210938 60.980469 63.371094 60.730469 63.546875 60.484375 C 66.566406 56.074219 68.902344 51.234375 68.902344 51.234375 C 68.902344 51.234375 69.117188 52.71875 69.847656 55.179688 C 70.207031 56.429688 70.9375 57.785156 71.582031 59.109375 C 68.742188 61.410156 66.992188 64.089844 66.367188 65.835938 C 65.242188 69.085938 66.117188 70.550781 67.777344 70.890625 C 68.527344 71.050781 69.601562 70.691406 70.386719 70.355469 C 71.382812 70.03125 72.5625 69.480469 73.6875 68.65625 C 75.597656 67.246094 77.4375 65.285156 77.328125 62.625 C 77.277344 61.410156 76.953125 60.214844 76.507812 59.054688 C 78.917969 58.054688 82.023438 57.5 85.988281 57.964844 C 94.484375 58.964844 96.160156 64.265625 95.839844 66.5 C 95.519531 68.730469 93.734375 69.941406 93.144531 70.316406 C 92.554688 70.691406 92.359375 70.816406 92.414062 71.085938 C 92.484375 71.476562 92.769531 71.460938 93.269531 71.390625 C 93.964844 71.265625 97.730469 69.585938 97.894531 65.480469 C 98.160156 60.234375 93.164062 54.503906 84.328125 54.554688 Z M 18.777344 76.65625 C 15.957031 79.726562 12.03125 80.886719 10.335938 79.902344 C 8.515625 78.851562 9.230469 74.316406 12.691406 71.066406 C 14.796875 69.085938 17.511719 67.246094 19.3125 66.125 C 19.726562 65.875 20.332031 65.515625 21.0625 65.070312 C 21.1875 65 21.261719 64.964844 21.261719 64.964844 C 21.402344 64.875 21.546875 64.785156 21.6875 64.695312 C 22.957031 69.335938 21.742188 73.425781 18.777344 76.65625 Z M 39.308594 62.695312 C 38.324219 65.085938 36.273438 71.210938 35.023438 70.871094 C 33.953125 70.585938 33.292969 65.945312 34.808594 61.355469 C 35.578125 59.054688 37.199219 56.304688 38.148438 55.234375 C 39.683594 53.519531 41.378906 52.949219 41.789062 53.644531 C 42.304688 54.554688 39.914062 61.195312 39.308594 62.695312 Z M 56.246094 70.800781 C 55.835938 71.015625 55.445312 71.15625 55.265625 71.050781 C 55.140625 70.980469 55.445312 70.691406 55.445312 70.691406 C 55.445312 70.691406 57.566406 68.40625 58.40625 67.371094 C 58.890625 66.765625 59.460938 66.050781 60.066406 65.25 L 60.066406 65.480469 C 60.066406 68.210938 57.425781 70.050781 56.246094 70.800781 Z M 69.3125 67.820312 C 69.011719 67.605469 69.0625 66.890625 70.082031 64.660156 C 70.472656 63.785156 71.402344 62.320312 72.992188 60.910156 C 73.167969 61.480469 73.292969 62.035156 73.277344 62.554688 C 73.257812 66 70.796875 67.285156 69.3125 67.820312 Z M 69.3125 67.820312 "/>
</g>
</svg>
