<?xml version="1.0" encoding="UTF-8"?>
<svg xmlns="http://www.w3.org/2000/svg" xmlns:xlink="http://www.w3.org/1999/xlink" width="98px" height="98px" viewBox="0 0 98 98" version="1.1">
<g id="surface1">
<path style=" stroke:none;fill-rule:nonzero;fill:rgb(100%,79.215686%,15.686275%);fill-opacity:1;" d="M 6.125 6.125 L 91.875 6.125 L 91.875 91.875 L 6.125 91.875 Z M 6.125 6.125 "/>
<path style=" stroke:none;fill-rule:nonzero;fill:rgb(24.313725%,24.313725%,24.313725%);fill-opacity:1;" d="M 58.1875 77.445312 L 64.5 73.265625 C 64.996094 74.820312 68.128906 78.511719 72.085938 78.511719 C 76.042969 78.511719 77.882812 76.351562 77.882812 74.917969 C 77.882812 71.011719 73.839844 69.636719 71.898438 68.972656 C 71.582031 68.867188 71.324219 68.777344 71.144531 68.699219 C 71.054688 68.660156 70.914062 68.609375 70.738281 68.539062 C 68.578125 67.714844 60.613281 64.671875 60.613281 55.851562 C 60.613281 46.136719 69.988281 45.019531 72.109375 45.019531 C 73.496094 45.019531 80.167969 45.1875 83.488281 51.429688 L 77.363281 55.707031 C 76.019531 52.984375 73.789062 52.085938 72.417969 52.085938 C 69.023438 52.085938 68.316406 54.574219 68.316406 55.707031 C 68.316406 58.882812 72.003906 60.304688 75.113281 61.507812 C 75.929688 61.824219 76.703125 62.121094 77.363281 62.433594 C 80.753906 64.035156 85.75 66.660156 85.75 74.917969 C 85.75 79.054688 82.28125 85.75 73.546875 85.75 C 61.816406 85.75 58.707031 78.707031 58.1875 77.445312 Z M 58.1875 77.445312 "/>
<path style=" stroke:none;fill-rule:nonzero;fill:rgb(24.313725%,24.313725%,24.313725%);fill-opacity:1;" d="M 27.5625 78.273438 L 34.144531 74.097656 C 34.660156 75.652344 36.660156 78.515625 39.570312 78.515625 C 42.476562 78.515625 43.964844 75.53125 43.964844 74.097656 L 43.964844 45.9375 L 52.058594 45.9375 L 52.058594 74.097656 C 52.1875 77.980469 50.035156 85.75 40.527344 85.75 C 31.785156 85.75 28.152344 80.554688 27.5625 78.273438 Z M 27.5625 78.273438 "/>
</g>
</svg>
