<?xml version="1.0" encoding="UTF-8"?>
<svg xmlns="http://www.w3.org/2000/svg" xmlns:xlink="http://www.w3.org/1999/xlink" width="98px" height="98px" viewBox="0 0 98 98" version="1.1">
<g id="surface1">
<path style=" stroke:none;fill-rule:nonzero;fill:rgb(46.27451%,29.019608%,73.72549%);fill-opacity:1;" d="M 67.902344 67.273438 C 71.519531 66.898438 74.265625 63.78125 74.140625 60.039062 C 74.015625 56.296875 70.898438 53.304688 67.15625 53.304688 L 66.90625 53.304688 C 63.039062 53.429688 60.046875 56.671875 60.171875 60.539062 C 60.296875 62.410156 61.042969 64.03125 62.167969 65.152344 C 57.925781 73.507812 51.441406 79.621094 41.714844 84.734375 C 35.105469 88.222656 28.246094 89.472656 21.386719 88.597656 C 15.773438 87.851562 11.410156 85.355469 8.667969 81.242188 C 4.675781 75.128906 4.300781 68.519531 7.667969 61.910156 C 10.039062 57.171875 13.78125 53.679688 16.148438 51.933594 C 15.652344 50.3125 14.902344 47.566406 14.527344 45.574219 C -3.554688 58.667969 -1.683594 76.375 3.804688 84.734375 C 7.917969 90.96875 16.273438 94.835938 25.503906 94.835938 C 27.996094 94.835938 30.492188 94.585938 32.984375 93.960938 C 48.949219 90.84375 61.042969 81.367188 67.902344 67.273438 Z M 89.851562 51.808594 C 80.375 40.707031 66.40625 34.597656 50.445312 34.597656 L 48.449219 34.597656 C 47.328125 32.351562 44.957031 30.855469 42.339844 30.855469 L 42.089844 30.855469 C 38.222656 30.980469 35.230469 34.222656 35.355469 38.089844 C 35.480469 41.832031 38.597656 44.824219 42.339844 44.824219 L 42.585938 44.824219 C 45.332031 44.699219 47.699219 42.953125 48.699219 40.582031 L 50.941406 40.582031 C 60.421875 40.582031 69.398438 43.328125 77.507812 48.691406 C 83.742188 52.804688 88.230469 58.167969 90.726562 64.652344 C 92.84375 69.890625 92.71875 75.003906 90.476562 79.371094 C 86.984375 85.980469 81.121094 89.597656 73.390625 89.597656 C 68.402344 89.597656 63.664062 88.101562 61.167969 86.976562 C 59.796875 88.222656 57.304688 90.21875 55.558594 91.46875 C 60.921875 93.960938 66.40625 95.332031 71.644531 95.332031 C 83.617188 95.332031 92.472656 88.722656 95.839844 82.113281 C 99.453125 74.878906 99.207031 62.410156 89.851562 51.808594 Z M 26.5 69.390625 C 26.625 73.132812 29.742188 76.125 33.484375 76.125 L 33.734375 76.125 C 37.597656 76.003906 40.59375 72.757812 40.46875 68.894531 C 40.34375 65.152344 37.226562 62.160156 33.484375 62.160156 L 33.234375 62.160156 C 32.984375 62.160156 32.609375 62.160156 32.363281 62.285156 C 27.25 53.804688 25.128906 44.574219 25.878906 34.597656 C 26.375 27.113281 28.871094 20.628906 33.234375 15.265625 C 36.851562 10.652344 43.835938 8.40625 48.574219 8.28125 C 61.792969 8.035156 67.40625 24.496094 67.777344 31.105469 C 69.398438 31.480469 72.144531 32.351562 74.015625 32.976562 C 72.519531 12.773438 60.046875 2.296875 48.074219 2.296875 C 36.851562 2.296875 26.5 10.402344 22.382812 22.375 C 16.648438 38.339844 20.390625 53.679688 27.371094 65.777344 C 26.75 66.648438 26.375 68.019531 26.5 69.394531 Z M 26.5 69.390625 "/>
</g>
</svg>
